{
	"asset":{
		"generator":"Khronos glTF Blender I/O v4.4.56",
		"version":"2.0"
	},
	"scene":0,
	"scenes":[
		{
			"name":"Scene",
			"nodes":[
				0
			]
		}
	],
	"nodes":[
		{
			"mesh":0,
			"name":"Asset 2.005"
		}
	],
	"materials":[
		{
			"doubleSided":true,
			"emissiveTexture":{
				"index":0
			},
			"name":"Bakegroup opt 2_BAKED.004",
			"normalTexture":{
				"index":1
			},
			"pbrMetallicRoughness":{
				"baseColorTexture":{
					"index":2
				},
				"metallicRoughnessTexture":{
					"index":3
				}
			}
		}
	],
	"meshes":[
		{
			"name":"Asset 2.003",
			"primitives":[
				{
					"attributes":{
						"POSITION":0,
						"NORMAL":1,
						"TEXCOORD_0":2,
						"TEXCOORD_1":3
					},
					"indices":4,
					"material":0
				}
			]
		}
	],
	"textures":[
		{
			"sampler":0,
			"source":0
		},
		{
			"sampler":0,
			"source":1
		},
		{
			"sampler":0,
			"source":2
		},
		{
			"sampler":0,
			"source":3
		}
	],
	"images":[
		{
			"mimeType":"image/png",
			"name":"Bakegroup opt 2_2K_Emission",
			"uri":"Bakegroup%20opt%202_2K_Emission.png"
		},
		{
			"mimeType":"image/png",
			"name":"Bakegroup opt 2_2K_NormalGL",
			"uri":"Bakegroup%20opt%202_2K_NormalGL.png"
		},
		{
			"mimeType":"image/png",
			"name":"Bakegroup opt 2_2K_Color",
			"uri":"Bakegroup%20opt%202_2K_Color.png"
		},
		{
			"mimeType":"image/png",
			"name":"Bakegroup opt 2_2K_Metallic-Bakegroup opt 2_2K_Roughness",
			"uri":"Bakegroup%20opt%202_2K_Metallic-Bakegroup%20opt%202_2K_Roughness.png"
		}
	],
	"accessors":[
		{
			"bufferView":0,
			"componentType":5126,
			"count":13260,
			"max":[
				0.013418243266642094,
				0.12735764682292938,
				0.20930273830890656
			],
			"min":[
				-0.016442112624645233,
				-0.12735767662525177,
				-0.20930272340774536
			],
			"type":"VEC3"
		},
		{
			"bufferView":1,
			"componentType":5126,
			"count":13260,
			"type":"VEC3"
		},
		{
			"bufferView":2,
			"componentType":5126,
			"count":13260,
			"type":"VEC2"
		},
		{
			"bufferView":3,
			"componentType":5126,
			"count":13260,
			"type":"VEC2"
		},
		{
			"bufferView":4,
			"componentType":5123,
			"count":38256,
			"type":"SCALAR"
		}
	],
	"bufferViews":[
		{
			"buffer":0,
			"byteLength":159120,
			"byteOffset":0,
			"target":34962
		},
		{
			"buffer":0,
			"byteLength":159120,
			"byteOffset":159120,
			"target":34962
		},
		{
			"buffer":0,
			"byteLength":106080,
			"byteOffset":318240,
			"target":34962
		},
		{
			"buffer":0,
			"byteLength":106080,
			"byteOffset":424320,
			"target":34962
		},
		{
			"buffer":0,
			"byteLength":76512,
			"byteOffset":530400,
			"target":34963
		}
	],
	"samplers":[
		{
			"magFilter":9729,
			"minFilter":9987
		}
	],
	"buffers":[
		{
			"byteLength":606912,
			"uri":"target.bin"
		}
	]
}
